<mxfile host="65bd71144e" pages="2">
    <diagram id="mVigwQWhMpdKdHefaD68" name="MCD">
        <mxGraphModel dx="1984" dy="1156" grid="0" gridSize="10" guides="1" tooltips="1" connect="1" arrows="1" fold="1" page="0" pageScale="1" pageWidth="827" pageHeight="1169" math="0" shadow="0">
            <root>
                <mxCell id="0"/>
                <mxCell id="1" parent="0"/>
                <mxCell id="IZ_guCKE3eKfIHXnUlwK-1" value="Location" style="swimlane;fontStyle=0;childLayout=stackLayout;horizontal=1;startSize=26;horizontalStack=0;resizeParent=1;resizeParentMax=0;resizeLast=0;collapsible=1;marginBottom=0;align=center;fontSize=14;fillColor=#dae8fc;strokeColor=#6c8ebf;" parent="1" vertex="1">
                    <mxGeometry x="150" y="281" width="160" height="86" as="geometry"/>
                </mxCell>
                <mxCell id="IZ_guCKE3eKfIHXnUlwK-2" value="Id" style="text;strokeColor=none;fillColor=none;spacingLeft=4;spacingRight=4;overflow=hidden;rotatable=0;points=[[0,0.5],[1,0.5]];portConstraint=eastwest;fontSize=12;" parent="IZ_guCKE3eKfIHXnUlwK-1" vertex="1">
                    <mxGeometry y="26" width="160" height="30" as="geometry"/>
                </mxCell>
                <mxCell id="IZ_guCKE3eKfIHXnUlwK-3" value="Name" style="text;strokeColor=none;fillColor=none;spacingLeft=4;spacingRight=4;overflow=hidden;rotatable=0;points=[[0,0.5],[1,0.5]];portConstraint=eastwest;fontSize=12;" parent="IZ_guCKE3eKfIHXnUlwK-1" vertex="1">
                    <mxGeometry y="56" width="160" height="30" as="geometry"/>
                </mxCell>
                <mxCell id="IZ_guCKE3eKfIHXnUlwK-5" value="Job" style="swimlane;fontStyle=0;childLayout=stackLayout;horizontal=1;startSize=26;horizontalStack=0;resizeParent=1;resizeParentMax=0;resizeLast=0;collapsible=1;marginBottom=0;align=center;fontSize=14;fillColor=#dae8fc;strokeColor=#6c8ebf;" parent="1" vertex="1">
                    <mxGeometry x="569" y="-230" width="160" height="86" as="geometry"/>
                </mxCell>
                <mxCell id="IZ_guCKE3eKfIHXnUlwK-6" value="Id" style="text;strokeColor=none;fillColor=none;spacingLeft=4;spacingRight=4;overflow=hidden;rotatable=0;points=[[0,0.5],[1,0.5]];portConstraint=eastwest;fontSize=12;" parent="IZ_guCKE3eKfIHXnUlwK-5" vertex="1">
                    <mxGeometry y="26" width="160" height="30" as="geometry"/>
                </mxCell>
                <mxCell id="IZ_guCKE3eKfIHXnUlwK-7" value="Name" style="text;strokeColor=none;fillColor=none;spacingLeft=4;spacingRight=4;overflow=hidden;rotatable=0;points=[[0,0.5],[1,0.5]];portConstraint=eastwest;fontSize=12;" parent="IZ_guCKE3eKfIHXnUlwK-5" vertex="1">
                    <mxGeometry y="56" width="160" height="30" as="geometry"/>
                </mxCell>
                <mxCell id="IcPHuXyP7gP1saVcf6r--30" style="edgeStyle=orthogonalEdgeStyle;rounded=0;orthogonalLoop=1;jettySize=auto;html=1;exitX=0.5;exitY=0;exitDx=0;exitDy=0;entryX=0.5;entryY=0;entryDx=0;entryDy=0;" parent="1" source="IZ_guCKE3eKfIHXnUlwK-9" target="IZ_guCKE3eKfIHXnUlwK-5" edge="1">
                    <mxGeometry relative="1" as="geometry"/>
                </mxCell>
                <mxCell id="IZ_guCKE3eKfIHXnUlwK-9" value="account" style="swimlane;fontStyle=0;childLayout=stackLayout;horizontal=1;startSize=26;horizontalStack=0;resizeParent=1;resizeParentMax=0;resizeLast=0;collapsible=1;marginBottom=0;align=center;fontSize=14;fillColor=#dae8fc;strokeColor=#6c8ebf;" parent="1" vertex="1">
                    <mxGeometry x="285" y="-138" width="160" height="296" as="geometry"/>
                </mxCell>
                <mxCell id="IZ_guCKE3eKfIHXnUlwK-10" value="Id" style="text;strokeColor=none;fillColor=none;spacingLeft=4;spacingRight=4;overflow=hidden;rotatable=0;points=[[0,0.5],[1,0.5]];portConstraint=eastwest;fontSize=12;" parent="IZ_guCKE3eKfIHXnUlwK-9" vertex="1">
                    <mxGeometry y="26" width="160" height="30" as="geometry"/>
                </mxCell>
                <mxCell id="IZ_guCKE3eKfIHXnUlwK-11" value="FirstName" style="text;strokeColor=none;fillColor=none;spacingLeft=4;spacingRight=4;overflow=hidden;rotatable=0;points=[[0,0.5],[1,0.5]];portConstraint=eastwest;fontSize=12;" parent="IZ_guCKE3eKfIHXnUlwK-9" vertex="1">
                    <mxGeometry y="56" width="160" height="30" as="geometry"/>
                </mxCell>
                <mxCell id="IZ_guCKE3eKfIHXnUlwK-12" value="LastName" style="text;strokeColor=none;fillColor=none;spacingLeft=4;spacingRight=4;overflow=hidden;rotatable=0;points=[[0,0.5],[1,0.5]];portConstraint=eastwest;fontSize=12;" parent="IZ_guCKE3eKfIHXnUlwK-9" vertex="1">
                    <mxGeometry y="86" width="160" height="30" as="geometry"/>
                </mxCell>
                <mxCell id="IZ_guCKE3eKfIHXnUlwK-14" value="PictureProfil" style="text;strokeColor=none;fillColor=none;spacingLeft=4;spacingRight=4;overflow=hidden;rotatable=0;points=[[0,0.5],[1,0.5]];portConstraint=eastwest;fontSize=12;" parent="IZ_guCKE3eKfIHXnUlwK-9" vertex="1">
                    <mxGeometry y="116" width="160" height="30" as="geometry"/>
                </mxCell>
                <mxCell id="IZ_guCKE3eKfIHXnUlwK-42" value="About" style="text;strokeColor=none;fillColor=none;spacingLeft=4;spacingRight=4;overflow=hidden;rotatable=0;points=[[0,0.5],[1,0.5]];portConstraint=eastwest;fontSize=12;" parent="IZ_guCKE3eKfIHXnUlwK-9" vertex="1">
                    <mxGeometry y="146" width="160" height="30" as="geometry"/>
                </mxCell>
                <mxCell id="IZ_guCKE3eKfIHXnUlwK-82" value="SIREN" style="text;strokeColor=none;fillColor=none;spacingLeft=4;spacingRight=4;overflow=hidden;rotatable=0;points=[[0,0.5],[1,0.5]];portConstraint=eastwest;fontSize=12;" parent="IZ_guCKE3eKfIHXnUlwK-9" vertex="1">
                    <mxGeometry y="176" width="160" height="30" as="geometry"/>
                </mxCell>
                <mxCell id="IZ_guCKE3eKfIHXnUlwK-84" value="Rate" style="text;strokeColor=none;fillColor=none;spacingLeft=4;spacingRight=4;overflow=hidden;rotatable=0;points=[[0,0.5],[1,0.5]];portConstraint=eastwest;fontSize=12;" parent="IZ_guCKE3eKfIHXnUlwK-9" vertex="1">
                    <mxGeometry y="206" width="160" height="30" as="geometry"/>
                </mxCell>
                <mxCell id="IZ_guCKE3eKfIHXnUlwK-20" value="Price" style="text;strokeColor=none;fillColor=none;spacingLeft=4;spacingRight=4;overflow=hidden;rotatable=0;points=[[0,0.5],[1,0.5]];portConstraint=eastwest;fontSize=12;" parent="IZ_guCKE3eKfIHXnUlwK-9" vertex="1">
                    <mxGeometry y="236" width="160" height="30" as="geometry"/>
                </mxCell>
                <mxCell id="IZ_guCKE3eKfIHXnUlwK-101" value="Language" style="text;strokeColor=none;fillColor=none;spacingLeft=4;spacingRight=4;overflow=hidden;rotatable=0;points=[[0,0.5],[1,0.5]];portConstraint=eastwest;fontSize=12;" parent="IZ_guCKE3eKfIHXnUlwK-9" vertex="1">
                    <mxGeometry y="266" width="160" height="30" as="geometry"/>
                </mxCell>
                <mxCell id="IZ_guCKE3eKfIHXnUlwK-16" value="Login" style="swimlane;fontStyle=0;childLayout=stackLayout;horizontal=1;startSize=26;horizontalStack=0;resizeParent=1;resizeParentMax=0;resizeLast=0;collapsible=1;marginBottom=0;align=center;fontSize=14;fillColor=#dae8fc;strokeColor=#6c8ebf;" parent="1" vertex="1">
                    <mxGeometry x="-198" y="-138" width="160" height="146" as="geometry"/>
                </mxCell>
                <mxCell id="IZ_guCKE3eKfIHXnUlwK-17" value="Id" style="text;strokeColor=none;fillColor=none;spacingLeft=4;spacingRight=4;overflow=hidden;rotatable=0;points=[[0,0.5],[1,0.5]];portConstraint=eastwest;fontSize=12;" parent="IZ_guCKE3eKfIHXnUlwK-16" vertex="1">
                    <mxGeometry y="26" width="160" height="30" as="geometry"/>
                </mxCell>
                <mxCell id="IZ_guCKE3eKfIHXnUlwK-18" value="TypeAccount" style="text;strokeColor=none;fillColor=none;spacingLeft=4;spacingRight=4;overflow=hidden;rotatable=0;points=[[0,0.5],[1,0.5]];portConstraint=eastwest;fontSize=12;" parent="IZ_guCKE3eKfIHXnUlwK-16" vertex="1">
                    <mxGeometry y="56" width="160" height="30" as="geometry"/>
                </mxCell>
                <mxCell id="IZ_guCKE3eKfIHXnUlwK-69" value="Email" style="text;strokeColor=none;fillColor=none;spacingLeft=4;spacingRight=4;overflow=hidden;rotatable=0;points=[[0,0.5],[1,0.5]];portConstraint=eastwest;fontSize=12;" parent="IZ_guCKE3eKfIHXnUlwK-16" vertex="1">
                    <mxGeometry y="86" width="160" height="30" as="geometry"/>
                </mxCell>
                <mxCell id="IZ_guCKE3eKfIHXnUlwK-19" value="Password" style="text;strokeColor=none;fillColor=none;spacingLeft=4;spacingRight=4;overflow=hidden;rotatable=0;points=[[0,0.5],[1,0.5]];portConstraint=eastwest;fontSize=12;" parent="IZ_guCKE3eKfIHXnUlwK-16" vertex="1">
                    <mxGeometry y="116" width="160" height="30" as="geometry"/>
                </mxCell>
                <mxCell id="IZ_guCKE3eKfIHXnUlwK-21" value="Experience" style="swimlane;fontStyle=0;childLayout=stackLayout;horizontal=1;startSize=26;horizontalStack=0;resizeParent=1;resizeParentMax=0;resizeLast=0;collapsible=1;marginBottom=0;align=center;fontSize=14;fillColor=#dae8fc;strokeColor=#6c8ebf;" parent="1" vertex="1">
                    <mxGeometry x="737" y="135" width="160" height="236" as="geometry"/>
                </mxCell>
                <mxCell id="IZ_guCKE3eKfIHXnUlwK-22" value="Id" style="text;strokeColor=none;fillColor=none;spacingLeft=4;spacingRight=4;overflow=hidden;rotatable=0;points=[[0,0.5],[1,0.5]];portConstraint=eastwest;fontSize=12;" parent="IZ_guCKE3eKfIHXnUlwK-21" vertex="1">
                    <mxGeometry y="26" width="160" height="30" as="geometry"/>
                </mxCell>
                <mxCell id="IZ_guCKE3eKfIHXnUlwK-23" value="Compagny" style="text;strokeColor=none;fillColor=none;spacingLeft=4;spacingRight=4;overflow=hidden;rotatable=0;points=[[0,0.5],[1,0.5]];portConstraint=eastwest;fontSize=12;" parent="IZ_guCKE3eKfIHXnUlwK-21" vertex="1">
                    <mxGeometry y="56" width="160" height="30" as="geometry"/>
                </mxCell>
                <mxCell id="IZ_guCKE3eKfIHXnUlwK-24" value="StartDate" style="text;strokeColor=none;fillColor=none;spacingLeft=4;spacingRight=4;overflow=hidden;rotatable=0;points=[[0,0.5],[1,0.5]];portConstraint=eastwest;fontSize=12;" parent="IZ_guCKE3eKfIHXnUlwK-21" vertex="1">
                    <mxGeometry y="86" width="160" height="30" as="geometry"/>
                </mxCell>
                <mxCell id="IZ_guCKE3eKfIHXnUlwK-25" value="EndDate" style="text;strokeColor=none;fillColor=none;spacingLeft=4;spacingRight=4;overflow=hidden;rotatable=0;points=[[0,0.5],[1,0.5]];portConstraint=eastwest;fontSize=12;" parent="IZ_guCKE3eKfIHXnUlwK-21" vertex="1">
                    <mxGeometry y="116" width="160" height="30" as="geometry"/>
                </mxCell>
                <mxCell id="IZ_guCKE3eKfIHXnUlwK-26" value="Occupation" style="text;strokeColor=none;fillColor=none;spacingLeft=4;spacingRight=4;overflow=hidden;rotatable=0;points=[[0,0.5],[1,0.5]];portConstraint=eastwest;fontSize=12;" parent="IZ_guCKE3eKfIHXnUlwK-21" vertex="1">
                    <mxGeometry y="146" width="160" height="30" as="geometry"/>
                </mxCell>
                <mxCell id="IZ_guCKE3eKfIHXnUlwK-27" value="Location" style="text;strokeColor=none;fillColor=none;spacingLeft=4;spacingRight=4;overflow=hidden;rotatable=0;points=[[0,0.5],[1,0.5]];portConstraint=eastwest;fontSize=12;" parent="IZ_guCKE3eKfIHXnUlwK-21" vertex="1">
                    <mxGeometry y="176" width="160" height="30" as="geometry"/>
                </mxCell>
                <mxCell id="IZ_guCKE3eKfIHXnUlwK-28" value="Description" style="text;strokeColor=none;fillColor=none;spacingLeft=4;spacingRight=4;overflow=hidden;rotatable=0;points=[[0,0.5],[1,0.5]];portConstraint=eastwest;fontSize=12;" parent="IZ_guCKE3eKfIHXnUlwK-21" vertex="1">
                    <mxGeometry y="206" width="160" height="30" as="geometry"/>
                </mxCell>
                <mxCell id="IZ_guCKE3eKfIHXnUlwK-43" value="Expertise" style="swimlane;fontStyle=0;childLayout=stackLayout;horizontal=1;startSize=26;horizontalStack=0;resizeParent=1;resizeParentMax=0;resizeLast=0;collapsible=1;marginBottom=0;align=center;fontSize=14;fillColor=#dae8fc;strokeColor=#6c8ebf;" parent="1" vertex="1">
                    <mxGeometry x="987" y="-233" width="160" height="86" as="geometry"/>
                </mxCell>
                <mxCell id="IZ_guCKE3eKfIHXnUlwK-44" value="Id" style="text;strokeColor=none;fillColor=none;spacingLeft=4;spacingRight=4;overflow=hidden;rotatable=0;points=[[0,0.5],[1,0.5]];portConstraint=eastwest;fontSize=12;" parent="IZ_guCKE3eKfIHXnUlwK-43" vertex="1">
                    <mxGeometry y="26" width="160" height="30" as="geometry"/>
                </mxCell>
                <mxCell id="IZ_guCKE3eKfIHXnUlwK-50" value="Name" style="text;strokeColor=none;fillColor=none;spacingLeft=4;spacingRight=4;overflow=hidden;rotatable=0;points=[[0,0.5],[1,0.5]];portConstraint=eastwest;fontSize=12;" parent="IZ_guCKE3eKfIHXnUlwK-43" vertex="1">
                    <mxGeometry y="56" width="160" height="30" as="geometry"/>
                </mxCell>
                <mxCell id="IZ_guCKE3eKfIHXnUlwK-61" value="Expertise_Category" style="swimlane;fontStyle=0;childLayout=stackLayout;horizontal=1;startSize=26;horizontalStack=0;resizeParent=1;resizeParentMax=0;resizeLast=0;collapsible=1;marginBottom=0;align=center;fontSize=14;fillColor=#dae8fc;strokeColor=#6c8ebf;" parent="1" vertex="1">
                    <mxGeometry x="997" y="49" width="160" height="86" as="geometry"/>
                </mxCell>
                <mxCell id="IZ_guCKE3eKfIHXnUlwK-62" value="Id" style="text;strokeColor=none;fillColor=none;spacingLeft=4;spacingRight=4;overflow=hidden;rotatable=0;points=[[0,0.5],[1,0.5]];portConstraint=eastwest;fontSize=12;" parent="IZ_guCKE3eKfIHXnUlwK-61" vertex="1">
                    <mxGeometry y="26" width="160" height="30" as="geometry"/>
                </mxCell>
                <mxCell id="IZ_guCKE3eKfIHXnUlwK-63" value="Name" style="text;strokeColor=none;fillColor=none;spacingLeft=4;spacingRight=4;overflow=hidden;rotatable=0;points=[[0,0.5],[1,0.5]];portConstraint=eastwest;fontSize=12;" parent="IZ_guCKE3eKfIHXnUlwK-61" vertex="1">
                    <mxGeometry y="56" width="160" height="30" as="geometry"/>
                </mxCell>
                <mxCell id="IZ_guCKE3eKfIHXnUlwK-65" value="Exemple : Framework,langages,Outils..." style="text;strokeColor=none;fillColor=none;spacingLeft=4;spacingRight=4;overflow=hidden;rotatable=0;points=[[0,0.5],[1,0.5]];portConstraint=eastwest;fontSize=12;fontColor=#808080;fontStyle=2" parent="1" vertex="1">
                    <mxGeometry x="947.5" y="-255" width="232" height="30" as="geometry"/>
                </mxCell>
                <mxCell id="IZ_guCKE3eKfIHXnUlwK-66" value="Exemple : VueJs, php, Git..." style="text;strokeColor=none;fillColor=none;spacingLeft=4;spacingRight=4;overflow=hidden;rotatable=0;points=[[0,0.5],[1,0.5]];portConstraint=eastwest;fontSize=12;fontColor=#808080;fontStyle=2" parent="1" vertex="1">
                    <mxGeometry x="983.5" y="138" width="196" height="30" as="geometry"/>
                </mxCell>
                <mxCell id="IZ_guCKE3eKfIHXnUlwK-70" value="Graduation" style="swimlane;fontStyle=0;childLayout=stackLayout;horizontal=1;startSize=26;horizontalStack=0;resizeParent=1;resizeParentMax=0;resizeLast=0;collapsible=1;marginBottom=0;align=center;fontSize=14;fillColor=#dae8fc;strokeColor=#6c8ebf;" parent="1" vertex="1">
                    <mxGeometry x="407" y="283" width="160" height="236" as="geometry"/>
                </mxCell>
                <mxCell id="IZ_guCKE3eKfIHXnUlwK-71" value="Id" style="text;strokeColor=none;fillColor=none;spacingLeft=4;spacingRight=4;overflow=hidden;rotatable=0;points=[[0,0.5],[1,0.5]];portConstraint=eastwest;fontSize=12;" parent="IZ_guCKE3eKfIHXnUlwK-70" vertex="1">
                    <mxGeometry y="26" width="160" height="30" as="geometry"/>
                </mxCell>
                <mxCell id="IZ_guCKE3eKfIHXnUlwK-73" value="StartDate" style="text;strokeColor=none;fillColor=none;spacingLeft=4;spacingRight=4;overflow=hidden;rotatable=0;points=[[0,0.5],[1,0.5]];portConstraint=eastwest;fontSize=12;" parent="IZ_guCKE3eKfIHXnUlwK-70" vertex="1">
                    <mxGeometry y="56" width="160" height="30" as="geometry"/>
                </mxCell>
                <mxCell id="IZ_guCKE3eKfIHXnUlwK-74" value="EndDate" style="text;strokeColor=none;fillColor=none;spacingLeft=4;spacingRight=4;overflow=hidden;rotatable=0;points=[[0,0.5],[1,0.5]];portConstraint=eastwest;fontSize=12;" parent="IZ_guCKE3eKfIHXnUlwK-70" vertex="1">
                    <mxGeometry y="86" width="160" height="30" as="geometry"/>
                </mxCell>
                <mxCell id="IZ_guCKE3eKfIHXnUlwK-75" value="Title" style="text;strokeColor=none;fillColor=none;spacingLeft=4;spacingRight=4;overflow=hidden;rotatable=0;points=[[0,0.5],[1,0.5]];portConstraint=eastwest;fontSize=12;" parent="IZ_guCKE3eKfIHXnUlwK-70" vertex="1">
                    <mxGeometry y="116" width="160" height="30" as="geometry"/>
                </mxCell>
                <mxCell id="IZ_guCKE3eKfIHXnUlwK-78" value="School" style="text;strokeColor=none;fillColor=none;spacingLeft=4;spacingRight=4;overflow=hidden;rotatable=0;points=[[0,0.5],[1,0.5]];portConstraint=eastwest;fontSize=12;" parent="IZ_guCKE3eKfIHXnUlwK-70" vertex="1">
                    <mxGeometry y="146" width="160" height="30" as="geometry"/>
                </mxCell>
                <mxCell id="IZ_guCKE3eKfIHXnUlwK-76" value="Location" style="text;strokeColor=none;fillColor=none;spacingLeft=4;spacingRight=4;overflow=hidden;rotatable=0;points=[[0,0.5],[1,0.5]];portConstraint=eastwest;fontSize=12;" parent="IZ_guCKE3eKfIHXnUlwK-70" vertex="1">
                    <mxGeometry y="176" width="160" height="30" as="geometry"/>
                </mxCell>
                <mxCell id="IZ_guCKE3eKfIHXnUlwK-77" value="Description" style="text;strokeColor=none;fillColor=none;spacingLeft=4;spacingRight=4;overflow=hidden;rotatable=0;points=[[0,0.5],[1,0.5]];portConstraint=eastwest;fontSize=12;" parent="IZ_guCKE3eKfIHXnUlwK-70" vertex="1">
                    <mxGeometry y="206" width="160" height="30" as="geometry"/>
                </mxCell>
                <mxCell id="IZ_guCKE3eKfIHXnUlwK-88" value="Estimate" style="swimlane;fontStyle=0;childLayout=stackLayout;horizontal=1;startSize=26;horizontalStack=0;resizeParent=1;resizeParentMax=0;resizeLast=0;collapsible=1;marginBottom=0;align=center;fontSize=14;fillColor=#dae8fc;strokeColor=#6c8ebf;" parent="1" vertex="1">
                    <mxGeometry x="24" y="-33" width="160" height="236" as="geometry"/>
                </mxCell>
                <mxCell id="IZ_guCKE3eKfIHXnUlwK-89" value="Id" style="text;strokeColor=none;fillColor=none;spacingLeft=4;spacingRight=4;overflow=hidden;rotatable=0;points=[[0,0.5],[1,0.5]];portConstraint=eastwest;fontSize=12;" parent="IZ_guCKE3eKfIHXnUlwK-88" vertex="1">
                    <mxGeometry y="26" width="160" height="30" as="geometry"/>
                </mxCell>
                <mxCell id="IZ_guCKE3eKfIHXnUlwK-90" value="Job_Title" style="text;strokeColor=none;fillColor=none;spacingLeft=4;spacingRight=4;overflow=hidden;rotatable=0;points=[[0,0.5],[1,0.5]];portConstraint=eastwest;fontSize=12;" parent="IZ_guCKE3eKfIHXnUlwK-88" vertex="1">
                    <mxGeometry y="56" width="160" height="30" as="geometry"/>
                </mxCell>
                <mxCell id="IZ_guCKE3eKfIHXnUlwK-91" value="Mission" style="text;strokeColor=none;fillColor=none;spacingLeft=4;spacingRight=4;overflow=hidden;rotatable=0;points=[[0,0.5],[1,0.5]];portConstraint=eastwest;fontSize=12;" parent="IZ_guCKE3eKfIHXnUlwK-88" vertex="1">
                    <mxGeometry y="86" width="160" height="30" as="geometry"/>
                </mxCell>
                <mxCell id="IZ_guCKE3eKfIHXnUlwK-93" value="When" style="text;strokeColor=none;fillColor=none;spacingLeft=4;spacingRight=4;overflow=hidden;rotatable=0;points=[[0,0.5],[1,0.5]];portConstraint=eastwest;fontSize=12;" parent="IZ_guCKE3eKfIHXnUlwK-88" vertex="1">
                    <mxGeometry y="116" width="160" height="30" as="geometry"/>
                </mxCell>
                <mxCell id="IZ_guCKE3eKfIHXnUlwK-94" value="Duration" style="text;strokeColor=none;fillColor=none;spacingLeft=4;spacingRight=4;overflow=hidden;rotatable=0;points=[[0,0.5],[1,0.5]];portConstraint=eastwest;fontSize=12;" parent="IZ_guCKE3eKfIHXnUlwK-88" vertex="1">
                    <mxGeometry y="146" width="160" height="30" as="geometry"/>
                </mxCell>
                <mxCell id="IZ_guCKE3eKfIHXnUlwK-95" value="HomeOffice" style="text;strokeColor=none;fillColor=none;spacingLeft=4;spacingRight=4;overflow=hidden;rotatable=0;points=[[0,0.5],[1,0.5]];portConstraint=eastwest;fontSize=12;" parent="IZ_guCKE3eKfIHXnUlwK-88" vertex="1">
                    <mxGeometry y="176" width="160" height="30" as="geometry"/>
                </mxCell>
                <mxCell id="IZ_guCKE3eKfIHXnUlwK-100" value="Price" style="text;strokeColor=none;fillColor=none;spacingLeft=4;spacingRight=4;overflow=hidden;rotatable=0;points=[[0,0.5],[1,0.5]];portConstraint=eastwest;fontSize=12;" parent="IZ_guCKE3eKfIHXnUlwK-88" vertex="1">
                    <mxGeometry y="206" width="160" height="30" as="geometry"/>
                </mxCell>
                <mxCell id="IZ_guCKE3eKfIHXnUlwK-103" value="" style="endArrow=classic;startArrow=classic;html=1;rounded=0;fontColor=#808080;exitX=1;exitY=0.5;exitDx=0;exitDy=0;entryX=0;entryY=0.5;entryDx=0;entryDy=0;" parent="1" source="IZ_guCKE3eKfIHXnUlwK-18" target="IZ_guCKE3eKfIHXnUlwK-11" edge="1">
                    <mxGeometry width="50" height="50" relative="1" as="geometry">
                        <mxPoint x="420" y="301" as="sourcePoint"/>
                        <mxPoint x="470" y="251" as="targetPoint"/>
                    </mxGeometry>
                </mxCell>
                <mxCell id="IZ_guCKE3eKfIHXnUlwK-105" value="" style="endArrow=classic;startArrow=none;html=1;rounded=0;fontColor=#808080;entryX=0;entryY=0.5;entryDx=0;entryDy=0;exitX=1;exitY=0.5;exitDx=0;exitDy=0;" parent="1" source="IZ_guCKE3eKfIHXnUlwK-143" target="IZ_guCKE3eKfIHXnUlwK-42" edge="1">
                    <mxGeometry width="50" height="50" relative="1" as="geometry">
                        <mxPoint x="183" y="93" as="sourcePoint"/>
                        <mxPoint x="467" y="179" as="targetPoint"/>
                    </mxGeometry>
                </mxCell>
                <mxCell id="IZ_guCKE3eKfIHXnUlwK-108" value="" style="endArrow=classic;startArrow=classic;html=1;rounded=0;fontColor=#808080;entryX=-0.012;entryY=0.15;entryDx=0;entryDy=0;entryPerimeter=0;exitX=1;exitY=0.5;exitDx=0;exitDy=0;" parent="1" source="IZ_guCKE3eKfIHXnUlwK-84" target="IZ_guCKE3eKfIHXnUlwK-25" edge="1">
                    <mxGeometry width="50" height="50" relative="1" as="geometry">
                        <mxPoint x="417" y="229" as="sourcePoint"/>
                        <mxPoint x="467" y="179" as="targetPoint"/>
                    </mxGeometry>
                </mxCell>
                <mxCell id="IZ_guCKE3eKfIHXnUlwK-110" value="" style="endArrow=classic;startArrow=classic;html=1;rounded=0;fontColor=#808080;entryX=0.55;entryY=1.117;entryDx=0;entryDy=0;entryPerimeter=0;" parent="1" source="IZ_guCKE3eKfIHXnUlwK-61" target="IZ_guCKE3eKfIHXnUlwK-50" edge="1">
                    <mxGeometry width="50" height="50" relative="1" as="geometry">
                        <mxPoint x="417" y="104" as="sourcePoint"/>
                        <mxPoint x="467" y="54" as="targetPoint"/>
                    </mxGeometry>
                </mxCell>
                <mxCell id="IZ_guCKE3eKfIHXnUlwK-113" value="1,1" style="text;html=1;strokeColor=none;fillColor=none;align=center;verticalAlign=middle;whiteSpace=wrap;rounded=0;fontColor=#000000;" parent="1" vertex="1">
                    <mxGeometry x="-32" y="-105" width="60" height="30" as="geometry"/>
                </mxCell>
                <mxCell id="IZ_guCKE3eKfIHXnUlwK-114" value="1,1" style="text;html=1;strokeColor=none;fillColor=none;align=center;verticalAlign=middle;whiteSpace=wrap;rounded=0;fontColor=#000000;" parent="1" vertex="1">
                    <mxGeometry x="225" y="-105" width="60" height="30" as="geometry"/>
                </mxCell>
                <mxCell id="IZ_guCKE3eKfIHXnUlwK-117" value="1,1" style="text;html=1;strokeColor=none;fillColor=none;align=center;verticalAlign=middle;whiteSpace=wrap;rounded=0;fontColor=#000000;" parent="1" vertex="1">
                    <mxGeometry x="173" y="23" width="60" height="30" as="geometry"/>
                </mxCell>
                <mxCell id="IZ_guCKE3eKfIHXnUlwK-119" value="1,1" style="text;html=1;strokeColor=none;fillColor=none;align=center;verticalAlign=middle;whiteSpace=wrap;rounded=0;fontColor=#000000;" parent="1" vertex="1">
                    <mxGeometry x="236" y="141" width="60" height="30" as="geometry"/>
                </mxCell>
                <mxCell id="IZ_guCKE3eKfIHXnUlwK-121" value="1,n" style="text;html=1;strokeColor=none;fillColor=none;align=center;verticalAlign=middle;whiteSpace=wrap;rounded=0;fontColor=#000000;" parent="1" vertex="1">
                    <mxGeometry x="179" y="253" width="60" height="30" as="geometry"/>
                </mxCell>
                <mxCell id="IZ_guCKE3eKfIHXnUlwK-123" value="1,1" style="text;html=1;strokeColor=none;fillColor=none;align=center;verticalAlign=middle;whiteSpace=wrap;rounded=0;fontColor=#000000;" parent="1" vertex="1">
                    <mxGeometry x="445" y="255" width="60" height="30" as="geometry"/>
                </mxCell>
                <mxCell id="IZ_guCKE3eKfIHXnUlwK-124" value="1,n" style="text;html=1;strokeColor=none;fillColor=none;align=center;verticalAlign=middle;whiteSpace=wrap;rounded=0;fontColor=#000000;" parent="1" vertex="1">
                    <mxGeometry x="445" y="144" width="42" height="16" as="geometry"/>
                </mxCell>
                <mxCell id="IZ_guCKE3eKfIHXnUlwK-125" value="1,n" style="text;html=1;strokeColor=none;fillColor=none;align=center;verticalAlign=middle;whiteSpace=wrap;rounded=0;fontColor=#000000;" parent="1" vertex="1">
                    <mxGeometry x="437" y="53" width="60" height="30" as="geometry"/>
                </mxCell>
                <mxCell id="IZ_guCKE3eKfIHXnUlwK-127" value="1,1" style="text;html=1;strokeColor=none;fillColor=none;align=center;verticalAlign=middle;whiteSpace=wrap;rounded=0;fontColor=#000000;" parent="1" vertex="1">
                    <mxGeometry x="677" y="190" width="60" height="30" as="geometry"/>
                </mxCell>
                <mxCell id="IZ_guCKE3eKfIHXnUlwK-128" value="1,1" style="text;html=1;strokeColor=none;fillColor=none;align=center;verticalAlign=middle;whiteSpace=wrap;rounded=0;fontColor=#000000;" parent="1" vertex="1">
                    <mxGeometry x="437" y="-83" width="42" height="20" as="geometry"/>
                </mxCell>
                <mxCell id="IZ_guCKE3eKfIHXnUlwK-129" value="" style="endArrow=classic;startArrow=classic;html=1;rounded=0;fontColor=#000000;entryX=0;entryY=0.5;entryDx=0;entryDy=0;exitX=1;exitY=0.5;exitDx=0;exitDy=0;" parent="1" source="IZ_guCKE3eKfIHXnUlwK-12" target="IZ_guCKE3eKfIHXnUlwK-7" edge="1">
                    <mxGeometry width="50" height="50" relative="1" as="geometry">
                        <mxPoint x="417" y="104" as="sourcePoint"/>
                        <mxPoint x="467" y="54" as="targetPoint"/>
                        <Array as="points">
                            <mxPoint x="502" y="-104"/>
                        </Array>
                    </mxGeometry>
                </mxCell>
                <mxCell id="IZ_guCKE3eKfIHXnUlwK-130" value="1,n" style="text;html=1;strokeColor=none;fillColor=none;align=center;verticalAlign=middle;whiteSpace=wrap;rounded=0;fontColor=#000000;" parent="1" vertex="1">
                    <mxGeometry x="516" y="-177" width="60" height="30" as="geometry"/>
                </mxCell>
                <mxCell id="IZ_guCKE3eKfIHXnUlwK-132" value="1,n" style="text;html=1;strokeColor=none;fillColor=none;align=center;verticalAlign=middle;whiteSpace=wrap;rounded=0;fontColor=#000000;" parent="1" vertex="1">
                    <mxGeometry x="250" y="-2" width="32" height="18" as="geometry"/>
                </mxCell>
                <mxCell id="IZ_guCKE3eKfIHXnUlwK-134" value="1,n" style="text;html=1;strokeColor=none;fillColor=none;align=center;verticalAlign=middle;whiteSpace=wrap;rounded=0;fontColor=#000000;" parent="1" vertex="1">
                    <mxGeometry x="721" y="-216" width="60" height="30" as="geometry"/>
                </mxCell>
                <mxCell id="IZ_guCKE3eKfIHXnUlwK-136" value="1,n" style="text;html=1;strokeColor=none;fillColor=none;align=center;verticalAlign=middle;whiteSpace=wrap;rounded=0;fontColor=#000000;" parent="1" vertex="1">
                    <mxGeometry x="932" y="-216" width="60" height="30" as="geometry"/>
                </mxCell>
                <mxCell id="IZ_guCKE3eKfIHXnUlwK-137" value="1,n" style="text;html=1;strokeColor=none;fillColor=none;align=center;verticalAlign=middle;whiteSpace=wrap;rounded=0;fontColor=#000000;" parent="1" vertex="1">
                    <mxGeometry x="1068" y="-144" width="60" height="30" as="geometry"/>
                </mxCell>
                <mxCell id="IZ_guCKE3eKfIHXnUlwK-138" value="1,1" style="text;html=1;strokeColor=none;fillColor=none;align=center;verticalAlign=middle;whiteSpace=wrap;rounded=0;fontColor=#000000;" parent="1" vertex="1">
                    <mxGeometry x="1068" y="23" width="60" height="30" as="geometry"/>
                </mxCell>
                <mxCell id="IZ_guCKE3eKfIHXnUlwK-139" value="HAS" style="ellipse;whiteSpace=wrap;html=1;fillColor=#fff2cc;strokeColor=#d6b656;" parent="1" vertex="1">
                    <mxGeometry x="71" y="-91" width="81" height="41" as="geometry"/>
                </mxCell>
                <mxCell id="IZ_guCKE3eKfIHXnUlwK-143" value="HAS" style="ellipse;whiteSpace=wrap;html=1;fillColor=#fff2cc;strokeColor=#d6b656;" parent="1" vertex="1">
                    <mxGeometry x="208" y="12" width="53" height="23" as="geometry"/>
                </mxCell>
                <mxCell id="IZ_guCKE3eKfIHXnUlwK-144" value="" style="endArrow=none;startArrow=classic;html=1;rounded=0;fontColor=#808080;entryX=0;entryY=0.5;entryDx=0;entryDy=0;exitX=1;exitY=0.05;exitDx=0;exitDy=0;exitPerimeter=0;" parent="1" source="IZ_guCKE3eKfIHXnUlwK-90" target="IZ_guCKE3eKfIHXnUlwK-143" edge="1">
                    <mxGeometry width="50" height="50" relative="1" as="geometry">
                        <mxPoint x="184" y="24.5" as="sourcePoint"/>
                        <mxPoint x="285" y="23" as="targetPoint"/>
                    </mxGeometry>
                </mxCell>
                <mxCell id="IZ_guCKE3eKfIHXnUlwK-147" value="HAS" style="ellipse;whiteSpace=wrap;html=1;fillColor=#fff2cc;strokeColor=#d6b656;" parent="1" vertex="1">
                    <mxGeometry x="462" y="-119" width="81" height="41" as="geometry"/>
                </mxCell>
                <mxCell id="IZ_guCKE3eKfIHXnUlwK-148" value="HAS" style="ellipse;whiteSpace=wrap;html=1;fillColor=#fff2cc;strokeColor=#d6b656;" parent="1" vertex="1">
                    <mxGeometry x="543" y="144" width="81" height="41" as="geometry"/>
                </mxCell>
                <mxCell id="IcPHuXyP7gP1saVcf6r--8" style="edgeStyle=orthogonalEdgeStyle;rounded=0;orthogonalLoop=1;jettySize=auto;html=1;entryX=0;entryY=0.5;entryDx=0;entryDy=0;" parent="1" source="IZ_guCKE3eKfIHXnUlwK-151" target="IZ_guCKE3eKfIHXnUlwK-43" edge="1">
                    <mxGeometry relative="1" as="geometry"/>
                </mxCell>
                <mxCell id="IZ_guCKE3eKfIHXnUlwK-151" value="HAS" style="ellipse;whiteSpace=wrap;html=1;fillColor=#fff2cc;strokeColor=#d6b656;" parent="1" vertex="1">
                    <mxGeometry x="816" y="-210.5" width="81" height="41" as="geometry"/>
                </mxCell>
                <mxCell id="IZ_guCKE3eKfIHXnUlwK-152" value="HAS" style="ellipse;whiteSpace=wrap;html=1;fillColor=#fff2cc;strokeColor=#d6b656;" parent="1" vertex="1">
                    <mxGeometry x="1036.5" y="-71" width="81" height="41" as="geometry"/>
                </mxCell>
                <mxCell id="ZhbzlIK5PnIrfzqopKbt-7" value="0,n" style="text;html=1;strokeColor=none;fillColor=none;align=center;verticalAlign=middle;whiteSpace=wrap;rounded=0;fontColor=#000000;" parent="1" vertex="1">
                    <mxGeometry x="645" y="-255" width="60" height="30" as="geometry"/>
                </mxCell>
                <mxCell id="TagqYiQ91vxFry6hOGJ6-2" value="0,n" style="text;html=1;strokeColor=none;fillColor=none;align=center;verticalAlign=middle;whiteSpace=wrap;rounded=0;fontColor=#000000;" parent="1" vertex="1">
                    <mxGeometry x="359" y="-163" width="60" height="30" as="geometry"/>
                </mxCell>
                <mxCell id="TagqYiQ91vxFry6hOGJ6-6" value="" style="edgeStyle=orthogonalEdgeStyle;rounded=0;orthogonalLoop=1;jettySize=auto;html=1;startArrow=none;" parent="1" source="TagqYiQ91vxFry6hOGJ6-9" target="IZ_guCKE3eKfIHXnUlwK-100" edge="1">
                    <mxGeometry relative="1" as="geometry"/>
                </mxCell>
                <mxCell id="TagqYiQ91vxFry6hOGJ6-3" value="Status_estimate" style="swimlane;fontStyle=0;childLayout=stackLayout;horizontal=1;startSize=26;horizontalStack=0;resizeParent=1;resizeParentMax=0;resizeLast=0;collapsible=1;marginBottom=0;align=center;fontSize=14;fillColor=#dae8fc;strokeColor=#6c8ebf;" parent="1" vertex="1">
                    <mxGeometry x="-303" y="144" width="160" height="86" as="geometry"/>
                </mxCell>
                <mxCell id="TagqYiQ91vxFry6hOGJ6-4" value="Id" style="text;strokeColor=none;fillColor=none;spacingLeft=4;spacingRight=4;overflow=hidden;rotatable=0;points=[[0,0.5],[1,0.5]];portConstraint=eastwest;fontSize=12;" parent="TagqYiQ91vxFry6hOGJ6-3" vertex="1">
                    <mxGeometry y="26" width="160" height="30" as="geometry"/>
                </mxCell>
                <mxCell id="TagqYiQ91vxFry6hOGJ6-5" value="Name" style="text;strokeColor=none;fillColor=none;spacingLeft=4;spacingRight=4;overflow=hidden;rotatable=0;points=[[0,0.5],[1,0.5]];portConstraint=eastwest;fontSize=12;" parent="TagqYiQ91vxFry6hOGJ6-3" vertex="1">
                    <mxGeometry y="56" width="160" height="30" as="geometry"/>
                </mxCell>
                <mxCell id="TagqYiQ91vxFry6hOGJ6-7" value="1,1" style="text;html=1;strokeColor=none;fillColor=none;align=center;verticalAlign=middle;whiteSpace=wrap;rounded=0;fontColor=#000000;" parent="1" vertex="1">
                    <mxGeometry x="-17" y="190" width="60" height="30" as="geometry"/>
                </mxCell>
                <mxCell id="TagqYiQ91vxFry6hOGJ6-8" value="1,n" style="text;html=1;strokeColor=none;fillColor=none;align=center;verticalAlign=middle;whiteSpace=wrap;rounded=0;fontColor=#000000;" parent="1" vertex="1">
                    <mxGeometry x="-159" y="180.5" width="60" height="30" as="geometry"/>
                </mxCell>
                <mxCell id="TagqYiQ91vxFry6hOGJ6-9" value="HAS" style="ellipse;whiteSpace=wrap;html=1;fillColor=#fff2cc;strokeColor=#d6b656;" parent="1" vertex="1">
                    <mxGeometry x="-96" y="166.5" width="81" height="41" as="geometry"/>
                </mxCell>
                <mxCell id="TagqYiQ91vxFry6hOGJ6-10" value="" style="edgeStyle=orthogonalEdgeStyle;rounded=0;orthogonalLoop=1;jettySize=auto;html=1;endArrow=none;" parent="1" source="TagqYiQ91vxFry6hOGJ6-3" target="TagqYiQ91vxFry6hOGJ6-9" edge="1">
                    <mxGeometry relative="1" as="geometry">
                        <mxPoint x="-104" y="188" as="sourcePoint"/>
                        <mxPoint x="24" y="188" as="targetPoint"/>
                    </mxGeometry>
                </mxCell>
                <mxCell id="IcPHuXyP7gP1saVcf6r--12" style="edgeStyle=orthogonalEdgeStyle;rounded=0;orthogonalLoop=1;jettySize=auto;html=1;entryX=0;entryY=0.5;entryDx=0;entryDy=0;" parent="1" source="IZ_guCKE3eKfIHXnUlwK-6" target="IZ_guCKE3eKfIHXnUlwK-151" edge="1">
                    <mxGeometry relative="1" as="geometry"/>
                </mxCell>
                <mxCell id="IcPHuXyP7gP1saVcf6r--14" value="1,n" style="text;html=1;strokeColor=none;fillColor=none;align=center;verticalAlign=middle;whiteSpace=wrap;rounded=0;fontColor=#000000;" parent="1" vertex="1">
                    <mxGeometry x="944" y="80" width="60" height="30" as="geometry"/>
                </mxCell>
                <mxCell id="IcPHuXyP7gP1saVcf6r--15" value="1,n" style="text;html=1;strokeColor=none;fillColor=none;align=center;verticalAlign=middle;whiteSpace=wrap;rounded=0;fontColor=#000000;" parent="1" vertex="1">
                    <mxGeometry x="431" y="19" width="60" height="30" as="geometry"/>
                </mxCell>
                <mxCell id="IcPHuXyP7gP1saVcf6r--16" value="1,n" style="text;html=1;strokeColor=none;fillColor=none;align=center;verticalAlign=middle;whiteSpace=wrap;rounded=0;fontColor=#000000;" parent="1" vertex="1">
                    <mxGeometry x="937" y="-158" width="60" height="30" as="geometry"/>
                </mxCell>
                <mxCell id="IcPHuXyP7gP1saVcf6r--25" style="edgeStyle=orthogonalEdgeStyle;rounded=0;orthogonalLoop=1;jettySize=auto;html=1;exitX=1;exitY=0.5;exitDx=0;exitDy=0;entryX=-0.014;entryY=0.148;entryDx=0;entryDy=0;entryPerimeter=0;" parent="1" source="IZ_guCKE3eKfIHXnUlwK-42" target="IZ_guCKE3eKfIHXnUlwK-63" edge="1">
                    <mxGeometry relative="1" as="geometry">
                        <Array as="points">
                            <mxPoint x="744" y="23"/>
                            <mxPoint x="744" y="109"/>
                        </Array>
                    </mxGeometry>
                </mxCell>
                <mxCell id="IcPHuXyP7gP1saVcf6r--28" style="edgeStyle=orthogonalEdgeStyle;rounded=0;orthogonalLoop=1;jettySize=auto;html=1;exitX=1;exitY=0.5;exitDx=0;exitDy=0;entryX=0;entryY=0.5;entryDx=0;entryDy=0;" parent="1" source="IZ_guCKE3eKfIHXnUlwK-14" target="IZ_guCKE3eKfIHXnUlwK-50" edge="1">
                    <mxGeometry relative="1" as="geometry">
                        <Array as="points">
                            <mxPoint x="744" y="-7"/>
                            <mxPoint x="744" y="-162"/>
                        </Array>
                    </mxGeometry>
                </mxCell>
                <mxCell id="IcPHuXyP7gP1saVcf6r--29" value="1,n" style="text;html=1;strokeColor=none;fillColor=none;align=center;verticalAlign=middle;whiteSpace=wrap;rounded=0;fontColor=#000000;" parent="1" vertex="1">
                    <mxGeometry x="431" y="-32" width="60" height="30" as="geometry"/>
                </mxCell>
                <mxCell id="IcPHuXyP7gP1saVcf6r--31" style="edgeStyle=orthogonalEdgeStyle;rounded=0;orthogonalLoop=1;jettySize=auto;html=1;entryX=0.5;entryY=0;entryDx=0;entryDy=0;" parent="1" source="IZ_guCKE3eKfIHXnUlwK-101" target="IZ_guCKE3eKfIHXnUlwK-1" edge="1">
                    <mxGeometry relative="1" as="geometry"/>
                </mxCell>
                <mxCell id="IcPHuXyP7gP1saVcf6r--32" value="HAS" style="ellipse;whiteSpace=wrap;html=1;fillColor=#fff2cc;strokeColor=#d6b656;" parent="1" vertex="1">
                    <mxGeometry x="189.5" y="175" width="81" height="41" as="geometry"/>
                </mxCell>
                <mxCell id="IcPHuXyP7gP1saVcf6r--36" style="edgeStyle=orthogonalEdgeStyle;rounded=0;orthogonalLoop=1;jettySize=auto;html=1;entryX=0.552;entryY=0.001;entryDx=0;entryDy=0;entryPerimeter=0;startArrow=none;" parent="1" source="IcPHuXyP7gP1saVcf6r--38" target="IZ_guCKE3eKfIHXnUlwK-70" edge="1">
                    <mxGeometry relative="1" as="geometry"/>
                </mxCell>
                <mxCell id="IcPHuXyP7gP1saVcf6r--38" value="HAS" style="ellipse;whiteSpace=wrap;html=1;fillColor=#fff2cc;strokeColor=#d6b656;" parent="1" vertex="1">
                    <mxGeometry x="455" y="190" width="81" height="41" as="geometry"/>
                </mxCell>
                <mxCell id="IcPHuXyP7gP1saVcf6r--40" value="" style="edgeStyle=orthogonalEdgeStyle;rounded=0;orthogonalLoop=1;jettySize=auto;html=1;entryX=0.552;entryY=0.001;entryDx=0;entryDy=0;entryPerimeter=0;endArrow=none;" parent="1" source="IZ_guCKE3eKfIHXnUlwK-101" target="IcPHuXyP7gP1saVcf6r--38" edge="1">
                    <mxGeometry relative="1" as="geometry">
                        <mxPoint x="445" y="143.00000000000023" as="sourcePoint"/>
                        <mxPoint x="493.32000000000016" y="283.2360000000001" as="targetPoint"/>
                    </mxGeometry>
                </mxCell>
            </root>
        </mxGraphModel>
    </diagram>
    <diagram id="8ndlVoOTiT5k0ZKBNCxd" name="MLD">
        <mxGraphModel dx="279" dy="1905" grid="0" gridSize="10" guides="1" tooltips="1" connect="1" arrows="1" fold="1" page="0" pageScale="1" pageWidth="827" pageHeight="1169" math="0" shadow="0">
            <root>
                <mxCell id="TiurjgZYMyvFgIEwGbsL-0"/>
                <mxCell id="TiurjgZYMyvFgIEwGbsL-1" parent="TiurjgZYMyvFgIEwGbsL-0"/>
                <mxCell id="-denUZRah9F26yDz6qbb-0" value="Job_Expertise" style="swimlane;fontStyle=1;childLayout=stackLayout;horizontal=1;startSize=26;horizontalStack=0;resizeParent=1;resizeParentMax=0;resizeLast=0;collapsible=1;marginBottom=0;align=center;fontSize=14;fillColor=#e1d5e7;strokeColor=#9673a6;" parent="TiurjgZYMyvFgIEwGbsL-1" vertex="1">
                    <mxGeometry x="2068" y="-878" width="160" height="116" as="geometry"/>
                </mxCell>
                <mxCell id="-denUZRah9F26yDz6qbb-1" value="Id" style="text;strokeColor=none;fillColor=none;spacingLeft=4;spacingRight=4;overflow=hidden;rotatable=0;points=[[0,0.5],[1,0.5]];portConstraint=eastwest;fontSize=12;" parent="-denUZRah9F26yDz6qbb-0" vertex="1">
                    <mxGeometry y="26" width="160" height="30" as="geometry"/>
                </mxCell>
                <mxCell id="-denUZRah9F26yDz6qbb-2" value="#IdJob" style="text;strokeColor=none;fillColor=none;spacingLeft=4;spacingRight=4;overflow=hidden;rotatable=0;points=[[0,0.5],[1,0.5]];portConstraint=eastwest;fontSize=12;fontStyle=1" parent="-denUZRah9F26yDz6qbb-0" vertex="1">
                    <mxGeometry y="56" width="160" height="30" as="geometry"/>
                </mxCell>
                <mxCell id="-denUZRah9F26yDz6qbb-3" value="#IdExpertise" style="text;strokeColor=none;fillColor=none;spacingLeft=4;spacingRight=4;overflow=hidden;rotatable=0;points=[[0,0.5],[1,0.5]];portConstraint=eastwest;fontSize=12;fontStyle=1" parent="-denUZRah9F26yDz6qbb-0" vertex="1">
                    <mxGeometry y="86" width="160" height="30" as="geometry"/>
                </mxCell>
                <mxCell id="xHrb7DT-36VbCQ76wRHy-0" value="Expertise_Category" style="swimlane;fontStyle=1;childLayout=stackLayout;horizontal=1;startSize=26;horizontalStack=0;resizeParent=1;resizeParentMax=0;resizeLast=0;collapsible=1;marginBottom=0;align=center;fontSize=14;fillColor=#b1ddf0;strokeColor=#10739e;" parent="TiurjgZYMyvFgIEwGbsL-1" vertex="1">
                    <mxGeometry x="2265" y="-728" width="160" height="116" as="geometry"/>
                </mxCell>
                <mxCell id="xHrb7DT-36VbCQ76wRHy-1" value="Id" style="text;strokeColor=none;fillColor=none;spacingLeft=4;spacingRight=4;overflow=hidden;rotatable=0;points=[[0,0.5],[1,0.5]];portConstraint=eastwest;fontSize=12;" parent="xHrb7DT-36VbCQ76wRHy-0" vertex="1">
                    <mxGeometry y="26" width="160" height="30" as="geometry"/>
                </mxCell>
                <mxCell id="xHrb7DT-36VbCQ76wRHy-2" value="Name" style="text;strokeColor=none;fillColor=none;spacingLeft=4;spacingRight=4;overflow=hidden;rotatable=0;points=[[0,0.5],[1,0.5]];portConstraint=eastwest;fontSize=12;" parent="xHrb7DT-36VbCQ76wRHy-0" vertex="1">
                    <mxGeometry y="56" width="160" height="30" as="geometry"/>
                </mxCell>
                <mxCell id="xHrb7DT-36VbCQ76wRHy-3" value="#IdExpertise" style="text;strokeColor=none;fillColor=none;spacingLeft=4;spacingRight=4;overflow=hidden;rotatable=0;points=[[0,0.5],[1,0.5]];portConstraint=eastwest;fontSize=12;fontStyle=1" parent="xHrb7DT-36VbCQ76wRHy-0" vertex="1">
                    <mxGeometry y="86" width="160" height="30" as="geometry"/>
                </mxCell>
                <mxCell id="e92cOGR-eiwb16YsRQrm-0" value="Graduation" style="swimlane;fontStyle=1;childLayout=stackLayout;horizontal=1;startSize=26;horizontalStack=0;resizeParent=1;resizeParentMax=0;resizeLast=0;collapsible=1;marginBottom=0;align=center;fontSize=14;fillColor=#b1ddf0;strokeColor=#10739e;" parent="TiurjgZYMyvFgIEwGbsL-1" vertex="1">
                    <mxGeometry x="1867" y="-426" width="160" height="266" as="geometry"/>
                </mxCell>
                <mxCell id="e92cOGR-eiwb16YsRQrm-1" value="Id" style="text;strokeColor=none;fillColor=none;spacingLeft=4;spacingRight=4;overflow=hidden;rotatable=0;points=[[0,0.5],[1,0.5]];portConstraint=eastwest;fontSize=12;" parent="e92cOGR-eiwb16YsRQrm-0" vertex="1">
                    <mxGeometry y="26" width="160" height="30" as="geometry"/>
                </mxCell>
                <mxCell id="e92cOGR-eiwb16YsRQrm-2" value="StartDate" style="text;strokeColor=none;fillColor=none;spacingLeft=4;spacingRight=4;overflow=hidden;rotatable=0;points=[[0,0.5],[1,0.5]];portConstraint=eastwest;fontSize=12;" parent="e92cOGR-eiwb16YsRQrm-0" vertex="1">
                    <mxGeometry y="56" width="160" height="30" as="geometry"/>
                </mxCell>
                <mxCell id="e92cOGR-eiwb16YsRQrm-3" value="EndDate" style="text;strokeColor=none;fillColor=none;spacingLeft=4;spacingRight=4;overflow=hidden;rotatable=0;points=[[0,0.5],[1,0.5]];portConstraint=eastwest;fontSize=12;" parent="e92cOGR-eiwb16YsRQrm-0" vertex="1">
                    <mxGeometry y="86" width="160" height="30" as="geometry"/>
                </mxCell>
                <mxCell id="e92cOGR-eiwb16YsRQrm-4" value="Title" style="text;strokeColor=none;fillColor=none;spacingLeft=4;spacingRight=4;overflow=hidden;rotatable=0;points=[[0,0.5],[1,0.5]];portConstraint=eastwest;fontSize=12;" parent="e92cOGR-eiwb16YsRQrm-0" vertex="1">
                    <mxGeometry y="116" width="160" height="30" as="geometry"/>
                </mxCell>
                <mxCell id="e92cOGR-eiwb16YsRQrm-5" value="School" style="text;strokeColor=none;fillColor=none;spacingLeft=4;spacingRight=4;overflow=hidden;rotatable=0;points=[[0,0.5],[1,0.5]];portConstraint=eastwest;fontSize=12;" parent="e92cOGR-eiwb16YsRQrm-0" vertex="1">
                    <mxGeometry y="146" width="160" height="30" as="geometry"/>
                </mxCell>
                <mxCell id="e92cOGR-eiwb16YsRQrm-6" value="Location" style="text;strokeColor=none;fillColor=none;spacingLeft=4;spacingRight=4;overflow=hidden;rotatable=0;points=[[0,0.5],[1,0.5]];portConstraint=eastwest;fontSize=12;" parent="e92cOGR-eiwb16YsRQrm-0" vertex="1">
                    <mxGeometry y="176" width="160" height="30" as="geometry"/>
                </mxCell>
                <mxCell id="e92cOGR-eiwb16YsRQrm-7" value="Description" style="text;strokeColor=none;fillColor=none;spacingLeft=4;spacingRight=4;overflow=hidden;rotatable=0;points=[[0,0.5],[1,0.5]];portConstraint=eastwest;fontSize=12;" parent="e92cOGR-eiwb16YsRQrm-0" vertex="1">
                    <mxGeometry y="206" width="160" height="30" as="geometry"/>
                </mxCell>
                <mxCell id="e92cOGR-eiwb16YsRQrm-8" value="#Id_Account" style="text;strokeColor=none;fillColor=none;spacingLeft=4;spacingRight=4;overflow=hidden;rotatable=0;points=[[0,0.5],[1,0.5]];portConstraint=eastwest;fontSize=12;fontStyle=1" parent="e92cOGR-eiwb16YsRQrm-0" vertex="1">
                    <mxGeometry y="236" width="160" height="30" as="geometry"/>
                </mxCell>
                <mxCell id="25RJsxbq80hLugdjGpFa-0" value="Account" style="swimlane;fontStyle=1;childLayout=stackLayout;horizontal=1;startSize=26;horizontalStack=0;resizeParent=1;resizeParentMax=0;resizeLast=0;collapsible=1;marginBottom=0;align=center;fontSize=14;fillColor=#b1ddf0;strokeColor=#10739e;" parent="TiurjgZYMyvFgIEwGbsL-1" vertex="1">
                    <mxGeometry x="1654" y="-882" width="160" height="386" as="geometry"/>
                </mxCell>
                <mxCell id="25RJsxbq80hLugdjGpFa-1" value="Id" style="text;strokeColor=none;fillColor=none;spacingLeft=4;spacingRight=4;overflow=hidden;rotatable=0;points=[[0,0.5],[1,0.5]];portConstraint=eastwest;fontSize=12;" parent="25RJsxbq80hLugdjGpFa-0" vertex="1">
                    <mxGeometry y="26" width="160" height="30" as="geometry"/>
                </mxCell>
                <mxCell id="25RJsxbq80hLugdjGpFa-2" value="FirstName" style="text;strokeColor=none;fillColor=none;spacingLeft=4;spacingRight=4;overflow=hidden;rotatable=0;points=[[0,0.5],[1,0.5]];portConstraint=eastwest;fontSize=12;" parent="25RJsxbq80hLugdjGpFa-0" vertex="1">
                    <mxGeometry y="56" width="160" height="30" as="geometry"/>
                </mxCell>
                <mxCell id="25RJsxbq80hLugdjGpFa-3" value="LastName" style="text;strokeColor=none;fillColor=none;spacingLeft=4;spacingRight=4;overflow=hidden;rotatable=0;points=[[0,0.5],[1,0.5]];portConstraint=eastwest;fontSize=12;" parent="25RJsxbq80hLugdjGpFa-0" vertex="1">
                    <mxGeometry y="86" width="160" height="30" as="geometry"/>
                </mxCell>
                <mxCell id="25RJsxbq80hLugdjGpFa-4" value="PictureProfil" style="text;strokeColor=none;fillColor=none;spacingLeft=4;spacingRight=4;overflow=hidden;rotatable=0;points=[[0,0.5],[1,0.5]];portConstraint=eastwest;fontSize=12;" parent="25RJsxbq80hLugdjGpFa-0" vertex="1">
                    <mxGeometry y="116" width="160" height="30" as="geometry"/>
                </mxCell>
                <mxCell id="25RJsxbq80hLugdjGpFa-5" value="About" style="text;strokeColor=none;fillColor=none;spacingLeft=4;spacingRight=4;overflow=hidden;rotatable=0;points=[[0,0.5],[1,0.5]];portConstraint=eastwest;fontSize=12;" parent="25RJsxbq80hLugdjGpFa-0" vertex="1">
                    <mxGeometry y="146" width="160" height="30" as="geometry"/>
                </mxCell>
                <mxCell id="25RJsxbq80hLugdjGpFa-6" value="SIREN" style="text;strokeColor=none;fillColor=none;spacingLeft=4;spacingRight=4;overflow=hidden;rotatable=0;points=[[0,0.5],[1,0.5]];portConstraint=eastwest;fontSize=12;" parent="25RJsxbq80hLugdjGpFa-0" vertex="1">
                    <mxGeometry y="176" width="160" height="30" as="geometry"/>
                </mxCell>
                <mxCell id="25RJsxbq80hLugdjGpFa-7" value="Rate" style="text;strokeColor=none;fillColor=none;spacingLeft=4;spacingRight=4;overflow=hidden;rotatable=0;points=[[0,0.5],[1,0.5]];portConstraint=eastwest;fontSize=12;" parent="25RJsxbq80hLugdjGpFa-0" vertex="1">
                    <mxGeometry y="206" width="160" height="30" as="geometry"/>
                </mxCell>
                <mxCell id="25RJsxbq80hLugdjGpFa-8" value="Price" style="text;strokeColor=none;fillColor=none;spacingLeft=4;spacingRight=4;overflow=hidden;rotatable=0;points=[[0,0.5],[1,0.5]];portConstraint=eastwest;fontSize=12;" parent="25RJsxbq80hLugdjGpFa-0" vertex="1">
                    <mxGeometry y="236" width="160" height="30" as="geometry"/>
                </mxCell>
                <mxCell id="25RJsxbq80hLugdjGpFa-9" value="Language" style="text;strokeColor=none;fillColor=none;spacingLeft=4;spacingRight=4;overflow=hidden;rotatable=0;points=[[0,0.5],[1,0.5]];portConstraint=eastwest;fontSize=12;" parent="25RJsxbq80hLugdjGpFa-0" vertex="1">
                    <mxGeometry y="266" width="160" height="30" as="geometry"/>
                </mxCell>
                <mxCell id="25RJsxbq80hLugdjGpFa-10" value="#IdJob" style="text;strokeColor=none;fillColor=none;spacingLeft=4;spacingRight=4;overflow=hidden;rotatable=0;points=[[0,0.5],[1,0.5]];portConstraint=eastwest;fontSize=12;fontStyle=1" parent="25RJsxbq80hLugdjGpFa-0" vertex="1">
                    <mxGeometry y="296" width="160" height="30" as="geometry"/>
                </mxCell>
                <mxCell id="25RJsxbq80hLugdjGpFa-11" value="#IdLocation" style="text;strokeColor=none;fillColor=none;spacingLeft=4;spacingRight=4;overflow=hidden;rotatable=0;points=[[0,0.5],[1,0.5]];portConstraint=eastwest;fontSize=12;fontStyle=1" parent="25RJsxbq80hLugdjGpFa-0" vertex="1">
                    <mxGeometry y="326" width="160" height="30" as="geometry"/>
                </mxCell>
                <mxCell id="Ad00jh0baBkLT_B6VXS--0" value="#IdLogin" style="text;strokeColor=none;fillColor=none;spacingLeft=4;spacingRight=4;overflow=hidden;rotatable=0;points=[[0,0.5],[1,0.5]];portConstraint=eastwest;fontSize=12;fontStyle=1" parent="25RJsxbq80hLugdjGpFa-0" vertex="1">
                    <mxGeometry y="356" width="160" height="30" as="geometry"/>
                </mxCell>
                <mxCell id="25RJsxbq80hLugdjGpFa-13" value="Experience" style="swimlane;fontStyle=1;childLayout=stackLayout;horizontal=1;startSize=26;horizontalStack=0;resizeParent=1;resizeParentMax=0;resizeLast=0;collapsible=1;marginBottom=0;align=center;fontSize=14;fillColor=#b1ddf0;strokeColor=#10739e;" parent="TiurjgZYMyvFgIEwGbsL-1" vertex="1">
                    <mxGeometry x="1867" y="-737" width="160" height="266" as="geometry"/>
                </mxCell>
                <mxCell id="25RJsxbq80hLugdjGpFa-14" value="Id" style="text;strokeColor=none;fillColor=none;spacingLeft=4;spacingRight=4;overflow=hidden;rotatable=0;points=[[0,0.5],[1,0.5]];portConstraint=eastwest;fontSize=12;" parent="25RJsxbq80hLugdjGpFa-13" vertex="1">
                    <mxGeometry y="26" width="160" height="30" as="geometry"/>
                </mxCell>
                <mxCell id="25RJsxbq80hLugdjGpFa-15" value="Compagny" style="text;strokeColor=none;fillColor=none;spacingLeft=4;spacingRight=4;overflow=hidden;rotatable=0;points=[[0,0.5],[1,0.5]];portConstraint=eastwest;fontSize=12;" parent="25RJsxbq80hLugdjGpFa-13" vertex="1">
                    <mxGeometry y="56" width="160" height="30" as="geometry"/>
                </mxCell>
                <mxCell id="25RJsxbq80hLugdjGpFa-16" value="StartDate" style="text;strokeColor=none;fillColor=none;spacingLeft=4;spacingRight=4;overflow=hidden;rotatable=0;points=[[0,0.5],[1,0.5]];portConstraint=eastwest;fontSize=12;" parent="25RJsxbq80hLugdjGpFa-13" vertex="1">
                    <mxGeometry y="86" width="160" height="30" as="geometry"/>
                </mxCell>
                <mxCell id="25RJsxbq80hLugdjGpFa-17" value="EndDate" style="text;strokeColor=none;fillColor=none;spacingLeft=4;spacingRight=4;overflow=hidden;rotatable=0;points=[[0,0.5],[1,0.5]];portConstraint=eastwest;fontSize=12;" parent="25RJsxbq80hLugdjGpFa-13" vertex="1">
                    <mxGeometry y="116" width="160" height="30" as="geometry"/>
                </mxCell>
                <mxCell id="25RJsxbq80hLugdjGpFa-18" value="Occupation" style="text;strokeColor=none;fillColor=none;spacingLeft=4;spacingRight=4;overflow=hidden;rotatable=0;points=[[0,0.5],[1,0.5]];portConstraint=eastwest;fontSize=12;" parent="25RJsxbq80hLugdjGpFa-13" vertex="1">
                    <mxGeometry y="146" width="160" height="30" as="geometry"/>
                </mxCell>
                <mxCell id="25RJsxbq80hLugdjGpFa-19" value="Location" style="text;strokeColor=none;fillColor=none;spacingLeft=4;spacingRight=4;overflow=hidden;rotatable=0;points=[[0,0.5],[1,0.5]];portConstraint=eastwest;fontSize=12;" parent="25RJsxbq80hLugdjGpFa-13" vertex="1">
                    <mxGeometry y="176" width="160" height="30" as="geometry"/>
                </mxCell>
                <mxCell id="25RJsxbq80hLugdjGpFa-20" value="Description" style="text;strokeColor=none;fillColor=none;spacingLeft=4;spacingRight=4;overflow=hidden;rotatable=0;points=[[0,0.5],[1,0.5]];portConstraint=eastwest;fontSize=12;" parent="25RJsxbq80hLugdjGpFa-13" vertex="1">
                    <mxGeometry y="206" width="160" height="30" as="geometry"/>
                </mxCell>
                <mxCell id="25RJsxbq80hLugdjGpFa-21" value="#Id_Account" style="text;strokeColor=none;fillColor=none;spacingLeft=4;spacingRight=4;overflow=hidden;rotatable=0;points=[[0,0.5],[1,0.5]];portConstraint=eastwest;fontSize=12;fontStyle=1" parent="25RJsxbq80hLugdjGpFa-13" vertex="1">
                    <mxGeometry y="236" width="160" height="30" as="geometry"/>
                </mxCell>
                <mxCell id="25RJsxbq80hLugdjGpFa-33" value="Estimate" style="swimlane;fontStyle=1;childLayout=stackLayout;horizontal=1;startSize=26;horizontalStack=0;resizeParent=1;resizeParentMax=0;resizeLast=0;collapsible=1;marginBottom=0;align=center;fontSize=14;fillColor=#b1ddf0;strokeColor=#10739e;" parent="TiurjgZYMyvFgIEwGbsL-1" vertex="1">
                    <mxGeometry x="1437" y="-885" width="160" height="326" as="geometry"/>
                </mxCell>
                <mxCell id="25RJsxbq80hLugdjGpFa-34" value="Id" style="text;strokeColor=none;fillColor=none;spacingLeft=4;spacingRight=4;overflow=hidden;rotatable=0;points=[[0,0.5],[1,0.5]];portConstraint=eastwest;fontSize=12;" parent="25RJsxbq80hLugdjGpFa-33" vertex="1">
                    <mxGeometry y="26" width="160" height="30" as="geometry"/>
                </mxCell>
                <mxCell id="25RJsxbq80hLugdjGpFa-35" value="Job_Title" style="text;strokeColor=none;fillColor=none;spacingLeft=4;spacingRight=4;overflow=hidden;rotatable=0;points=[[0,0.5],[1,0.5]];portConstraint=eastwest;fontSize=12;" parent="25RJsxbq80hLugdjGpFa-33" vertex="1">
                    <mxGeometry y="56" width="160" height="30" as="geometry"/>
                </mxCell>
                <mxCell id="25RJsxbq80hLugdjGpFa-36" value="Mission" style="text;strokeColor=none;fillColor=none;spacingLeft=4;spacingRight=4;overflow=hidden;rotatable=0;points=[[0,0.5],[1,0.5]];portConstraint=eastwest;fontSize=12;" parent="25RJsxbq80hLugdjGpFa-33" vertex="1">
                    <mxGeometry y="86" width="160" height="30" as="geometry"/>
                </mxCell>
                <mxCell id="25RJsxbq80hLugdjGpFa-37" value="When" style="text;strokeColor=none;fillColor=none;spacingLeft=4;spacingRight=4;overflow=hidden;rotatable=0;points=[[0,0.5],[1,0.5]];portConstraint=eastwest;fontSize=12;" parent="25RJsxbq80hLugdjGpFa-33" vertex="1">
                    <mxGeometry y="116" width="160" height="30" as="geometry"/>
                </mxCell>
                <mxCell id="25RJsxbq80hLugdjGpFa-38" value="Duration" style="text;strokeColor=none;fillColor=none;spacingLeft=4;spacingRight=4;overflow=hidden;rotatable=0;points=[[0,0.5],[1,0.5]];portConstraint=eastwest;fontSize=12;" parent="25RJsxbq80hLugdjGpFa-33" vertex="1">
                    <mxGeometry y="146" width="160" height="30" as="geometry"/>
                </mxCell>
                <mxCell id="25RJsxbq80hLugdjGpFa-39" value="HomeOffice" style="text;strokeColor=none;fillColor=none;spacingLeft=4;spacingRight=4;overflow=hidden;rotatable=0;points=[[0,0.5],[1,0.5]];portConstraint=eastwest;fontSize=12;" parent="25RJsxbq80hLugdjGpFa-33" vertex="1">
                    <mxGeometry y="176" width="160" height="30" as="geometry"/>
                </mxCell>
                <mxCell id="25RJsxbq80hLugdjGpFa-40" value="Price" style="text;strokeColor=none;fillColor=none;spacingLeft=4;spacingRight=4;overflow=hidden;rotatable=0;points=[[0,0.5],[1,0.5]];portConstraint=eastwest;fontSize=12;" parent="25RJsxbq80hLugdjGpFa-33" vertex="1">
                    <mxGeometry y="206" width="160" height="30" as="geometry"/>
                </mxCell>
                <mxCell id="25RJsxbq80hLugdjGpFa-41" value="#IdStatus" style="text;strokeColor=none;fillColor=none;spacingLeft=4;spacingRight=4;overflow=hidden;rotatable=0;points=[[0,0.5],[1,0.5]];portConstraint=eastwest;fontSize=12;fontStyle=1" parent="25RJsxbq80hLugdjGpFa-33" vertex="1">
                    <mxGeometry y="236" width="160" height="30" as="geometry"/>
                </mxCell>
                <mxCell id="25RJsxbq80hLugdjGpFa-42" value="#Id_Freelance" style="text;strokeColor=none;fillColor=none;spacingLeft=4;spacingRight=4;overflow=hidden;rotatable=0;points=[[0,0.5],[1,0.5]];portConstraint=eastwest;fontSize=12;fontStyle=1" parent="25RJsxbq80hLugdjGpFa-33" vertex="1">
                    <mxGeometry y="266" width="160" height="30" as="geometry"/>
                </mxCell>
                <mxCell id="25RJsxbq80hLugdjGpFa-43" value="#Id_Customer" style="text;strokeColor=none;fillColor=none;spacingLeft=4;spacingRight=4;overflow=hidden;rotatable=0;points=[[0,0.5],[1,0.5]];portConstraint=eastwest;fontSize=12;fontStyle=1" parent="25RJsxbq80hLugdjGpFa-33" vertex="1">
                    <mxGeometry y="296" width="160" height="30" as="geometry"/>
                </mxCell>
                <mxCell id="83x-nN9xS21FK5YqS6j1-0" value="Job" style="swimlane;fontStyle=1;childLayout=stackLayout;horizontal=1;startSize=26;horizontalStack=0;resizeParent=1;resizeParentMax=0;resizeLast=0;collapsible=1;marginBottom=0;align=center;fontSize=14;fillColor=#b1ddf0;strokeColor=#10739e;" parent="TiurjgZYMyvFgIEwGbsL-1" vertex="1">
                    <mxGeometry x="1869" y="-878" width="160" height="86" as="geometry"/>
                </mxCell>
                <mxCell id="83x-nN9xS21FK5YqS6j1-1" value="Id" style="text;strokeColor=none;fillColor=none;spacingLeft=4;spacingRight=4;overflow=hidden;rotatable=0;points=[[0,0.5],[1,0.5]];portConstraint=eastwest;fontSize=12;" parent="83x-nN9xS21FK5YqS6j1-0" vertex="1">
                    <mxGeometry y="26" width="160" height="30" as="geometry"/>
                </mxCell>
                <mxCell id="83x-nN9xS21FK5YqS6j1-2" value="Name" style="text;strokeColor=none;fillColor=none;spacingLeft=4;spacingRight=4;overflow=hidden;rotatable=0;points=[[0,0.5],[1,0.5]];portConstraint=eastwest;fontSize=12;" parent="83x-nN9xS21FK5YqS6j1-0" vertex="1">
                    <mxGeometry y="56" width="160" height="30" as="geometry"/>
                </mxCell>
                <mxCell id="XgvY9aYR2NfeCOJozv5p-0" value="Expertise" style="swimlane;fontStyle=1;childLayout=stackLayout;horizontal=1;startSize=26;horizontalStack=0;resizeParent=1;resizeParentMax=0;resizeLast=0;collapsible=1;marginBottom=0;align=center;fontSize=14;fillColor=#b1ddf0;strokeColor=#10739e;" parent="TiurjgZYMyvFgIEwGbsL-1" vertex="1">
                    <mxGeometry x="2267" y="-878" width="160" height="86" as="geometry"/>
                </mxCell>
                <mxCell id="XgvY9aYR2NfeCOJozv5p-1" value="Id" style="text;strokeColor=none;fillColor=none;spacingLeft=4;spacingRight=4;overflow=hidden;rotatable=0;points=[[0,0.5],[1,0.5]];portConstraint=eastwest;fontSize=12;" parent="XgvY9aYR2NfeCOJozv5p-0" vertex="1">
                    <mxGeometry y="26" width="160" height="30" as="geometry"/>
                </mxCell>
                <mxCell id="XgvY9aYR2NfeCOJozv5p-2" value="Name" style="text;strokeColor=none;fillColor=none;spacingLeft=4;spacingRight=4;overflow=hidden;rotatable=0;points=[[0,0.5],[1,0.5]];portConstraint=eastwest;fontSize=12;" parent="XgvY9aYR2NfeCOJozv5p-0" vertex="1">
                    <mxGeometry y="56" width="160" height="30" as="geometry"/>
                </mxCell>
                <mxCell id="Kzec-F8RyIbuenyXW3xv-0" value="Location" style="swimlane;fontStyle=1;childLayout=stackLayout;horizontal=1;startSize=26;horizontalStack=0;resizeParent=1;resizeParentMax=0;resizeLast=0;collapsible=1;marginBottom=0;align=center;fontSize=14;fillColor=#b1ddf0;strokeColor=#10739e;" parent="TiurjgZYMyvFgIEwGbsL-1" vertex="1">
                    <mxGeometry x="1654" y="-426" width="160" height="86" as="geometry"/>
                </mxCell>
                <mxCell id="Kzec-F8RyIbuenyXW3xv-1" value="Id" style="text;strokeColor=none;fillColor=none;spacingLeft=4;spacingRight=4;overflow=hidden;rotatable=0;points=[[0,0.5],[1,0.5]];portConstraint=eastwest;fontSize=12;" parent="Kzec-F8RyIbuenyXW3xv-0" vertex="1">
                    <mxGeometry y="26" width="160" height="30" as="geometry"/>
                </mxCell>
                <mxCell id="Kzec-F8RyIbuenyXW3xv-2" value="Name" style="text;strokeColor=none;fillColor=none;spacingLeft=4;spacingRight=4;overflow=hidden;rotatable=0;points=[[0,0.5],[1,0.5]];portConstraint=eastwest;fontSize=12;" parent="Kzec-F8RyIbuenyXW3xv-0" vertex="1">
                    <mxGeometry y="56" width="160" height="30" as="geometry"/>
                </mxCell>
                <mxCell id="sSgQCPnSaAxTNFw7tXSq-0" value="Login" style="swimlane;fontStyle=1;childLayout=stackLayout;horizontal=1;startSize=26;horizontalStack=0;resizeParent=1;resizeParentMax=0;resizeLast=0;collapsible=1;marginBottom=0;align=center;fontSize=14;fillColor=#b1ddf0;strokeColor=#10739e;" parent="TiurjgZYMyvFgIEwGbsL-1" vertex="1">
                    <mxGeometry x="1203" y="-883" width="160" height="146" as="geometry"/>
                </mxCell>
                <mxCell id="sSgQCPnSaAxTNFw7tXSq-1" value="Id" style="text;strokeColor=none;fillColor=none;spacingLeft=4;spacingRight=4;overflow=hidden;rotatable=0;points=[[0,0.5],[1,0.5]];portConstraint=eastwest;fontSize=12;" parent="sSgQCPnSaAxTNFw7tXSq-0" vertex="1">
                    <mxGeometry y="26" width="160" height="30" as="geometry"/>
                </mxCell>
                <mxCell id="sSgQCPnSaAxTNFw7tXSq-2" value="TypeAccount" style="text;strokeColor=none;fillColor=none;spacingLeft=4;spacingRight=4;overflow=hidden;rotatable=0;points=[[0,0.5],[1,0.5]];portConstraint=eastwest;fontSize=12;" parent="sSgQCPnSaAxTNFw7tXSq-0" vertex="1">
                    <mxGeometry y="56" width="160" height="30" as="geometry"/>
                </mxCell>
                <mxCell id="sSgQCPnSaAxTNFw7tXSq-3" value="Email" style="text;strokeColor=none;fillColor=none;spacingLeft=4;spacingRight=4;overflow=hidden;rotatable=0;points=[[0,0.5],[1,0.5]];portConstraint=eastwest;fontSize=12;" parent="sSgQCPnSaAxTNFw7tXSq-0" vertex="1">
                    <mxGeometry y="86" width="160" height="30" as="geometry"/>
                </mxCell>
                <mxCell id="sSgQCPnSaAxTNFw7tXSq-4" value="Password" style="text;strokeColor=none;fillColor=none;spacingLeft=4;spacingRight=4;overflow=hidden;rotatable=0;points=[[0,0.5],[1,0.5]];portConstraint=eastwest;fontSize=12;" parent="sSgQCPnSaAxTNFw7tXSq-0" vertex="1">
                    <mxGeometry y="116" width="160" height="30" as="geometry"/>
                </mxCell>
                <mxCell id="ubwU-SObyzkozryEX-Dx-0" value="Favorite_jobs" style="swimlane;fontStyle=1;childLayout=stackLayout;horizontal=1;startSize=26;horizontalStack=0;resizeParent=1;resizeParentMax=0;resizeLast=0;collapsible=1;marginBottom=0;align=center;fontSize=14;fillColor=#e1d5e7;strokeColor=#9673a6;" parent="TiurjgZYMyvFgIEwGbsL-1" vertex="1">
                    <mxGeometry x="2068" y="-728" width="160" height="116" as="geometry"/>
                </mxCell>
                <mxCell id="ubwU-SObyzkozryEX-Dx-1" value="Id" style="text;strokeColor=none;fillColor=none;spacingLeft=4;spacingRight=4;overflow=hidden;rotatable=0;points=[[0,0.5],[1,0.5]];portConstraint=eastwest;fontSize=12;" parent="ubwU-SObyzkozryEX-Dx-0" vertex="1">
                    <mxGeometry y="26" width="160" height="30" as="geometry"/>
                </mxCell>
                <mxCell id="ubwU-SObyzkozryEX-Dx-2" value="#IdJob" style="text;strokeColor=none;fillColor=none;spacingLeft=4;spacingRight=4;overflow=hidden;rotatable=0;points=[[0,0.5],[1,0.5]];portConstraint=eastwest;fontSize=12;fontStyle=1" parent="ubwU-SObyzkozryEX-Dx-0" vertex="1">
                    <mxGeometry y="56" width="160" height="30" as="geometry"/>
                </mxCell>
                <mxCell id="ubwU-SObyzkozryEX-Dx-3" value="#Id_Account" style="text;strokeColor=none;fillColor=none;spacingLeft=4;spacingRight=4;overflow=hidden;rotatable=0;points=[[0,0.5],[1,0.5]];portConstraint=eastwest;fontSize=12;fontStyle=1" parent="ubwU-SObyzkozryEX-Dx-0" vertex="1">
                    <mxGeometry y="86" width="160" height="30" as="geometry"/>
                </mxCell>
                <mxCell id="ivf6XMzryMwLXppZ3EfV-0" value="Exemple : Framework,langages,Outils..." style="text;strokeColor=none;fillColor=none;spacingLeft=4;spacingRight=4;overflow=hidden;rotatable=0;points=[[0,0.5],[1,0.5]];portConstraint=eastwest;fontSize=12;fontColor=#808080;fontStyle=2" parent="TiurjgZYMyvFgIEwGbsL-1" vertex="1">
                    <mxGeometry x="2267" y="-913" width="232" height="30" as="geometry"/>
                </mxCell>
                <mxCell id="29OWg-t-fNs7RIRtu_pz-0" value="Exemple : VueJs, php, Git..." style="text;strokeColor=none;fillColor=none;spacingLeft=4;spacingRight=4;overflow=hidden;rotatable=0;points=[[0,0.5],[1,0.5]];portConstraint=eastwest;fontSize=12;fontColor=#808080;fontStyle=2" parent="TiurjgZYMyvFgIEwGbsL-1" vertex="1">
                    <mxGeometry x="2265" y="-602" width="196" height="30" as="geometry"/>
                </mxCell>
                <mxCell id="ILdt004s7qj66HOii5pQ-0" value="Status_estimate" style="swimlane;fontStyle=1;childLayout=stackLayout;horizontal=1;startSize=26;horizontalStack=0;resizeParent=1;resizeParentMax=0;resizeLast=0;collapsible=1;marginBottom=0;align=center;fontSize=14;fillColor=#b1ddf0;strokeColor=#10739e;" parent="TiurjgZYMyvFgIEwGbsL-1" vertex="1">
                    <mxGeometry x="1203" y="-682" width="160" height="86" as="geometry"/>
                </mxCell>
                <mxCell id="ILdt004s7qj66HOii5pQ-1" value="Id" style="text;strokeColor=none;fillColor=none;spacingLeft=4;spacingRight=4;overflow=hidden;rotatable=0;points=[[0,0.5],[1,0.5]];portConstraint=eastwest;fontSize=12;" parent="ILdt004s7qj66HOii5pQ-0" vertex="1">
                    <mxGeometry y="26" width="160" height="30" as="geometry"/>
                </mxCell>
                <mxCell id="ILdt004s7qj66HOii5pQ-2" value="Name" style="text;strokeColor=none;fillColor=none;spacingLeft=4;spacingRight=4;overflow=hidden;rotatable=0;points=[[0,0.5],[1,0.5]];portConstraint=eastwest;fontSize=12;" parent="ILdt004s7qj66HOii5pQ-0" vertex="1">
                    <mxGeometry y="56" width="160" height="30" as="geometry"/>
                </mxCell>
                <mxCell id="w4G0jtwcklSTcDgLOLxZ-0" value="Skill" style="swimlane;fontStyle=1;childLayout=stackLayout;horizontal=1;startSize=26;horizontalStack=0;resizeParent=1;resizeParentMax=0;resizeLast=0;collapsible=1;marginBottom=0;align=center;fontSize=14;fillColor=#e1d5e7;strokeColor=#9673a6;" parent="TiurjgZYMyvFgIEwGbsL-1" vertex="1">
                    <mxGeometry x="2461" y="-878" width="160" height="146" as="geometry"/>
                </mxCell>
                <mxCell id="w4G0jtwcklSTcDgLOLxZ-1" value="Id" style="text;strokeColor=none;fillColor=none;spacingLeft=4;spacingRight=4;overflow=hidden;rotatable=0;points=[[0,0.5],[1,0.5]];portConstraint=eastwest;fontSize=12;" parent="w4G0jtwcklSTcDgLOLxZ-0" vertex="1">
                    <mxGeometry y="26" width="160" height="30" as="geometry"/>
                </mxCell>
                <mxCell id="w4G0jtwcklSTcDgLOLxZ-5" value="#IdExpertise" style="text;strokeColor=none;fillColor=none;spacingLeft=4;spacingRight=4;overflow=hidden;rotatable=0;points=[[0,0.5],[1,0.5]];portConstraint=eastwest;fontSize=12;fontStyle=1" parent="w4G0jtwcklSTcDgLOLxZ-0" vertex="1">
                    <mxGeometry y="56" width="160" height="30" as="geometry"/>
                </mxCell>
                <mxCell id="w4G0jtwcklSTcDgLOLxZ-6" value="#IdExpertise_Category" style="text;strokeColor=none;fillColor=none;spacingLeft=4;spacingRight=4;overflow=hidden;rotatable=0;points=[[0,0.5],[1,0.5]];portConstraint=eastwest;fontSize=12;fontStyle=1" parent="w4G0jtwcklSTcDgLOLxZ-0" vertex="1">
                    <mxGeometry y="86" width="160" height="30" as="geometry"/>
                </mxCell>
                <mxCell id="w4G0jtwcklSTcDgLOLxZ-3" value="#IdAccount" style="text;strokeColor=none;fillColor=none;spacingLeft=4;spacingRight=4;overflow=hidden;rotatable=0;points=[[0,0.5],[1,0.5]];portConstraint=eastwest;fontSize=12;fontStyle=1" parent="w4G0jtwcklSTcDgLOLxZ-0" vertex="1">
                    <mxGeometry y="116" width="160" height="30" as="geometry"/>
                </mxCell>
            </root>
        </mxGraphModel>
    </diagram>
</mxfile>